<svg xmlns="http://www.w3.org/2000/svg" width="24.176" height="19.752" viewBox="0 0 24.176 19.752">
  <g id="Eamil" transform="translate(722.165 407.604)">
    <path id="Caminho_61" data-name="Caminho 61" d="M-710.045-407.6q4.324,0,8.648,0a3.242,3.242,0,0,1,3.388,3.257q.044,6.628-.005,13.256a3.227,3.227,0,0,1-3.287,3.23q-8.776.017-17.552,0a3.234,3.234,0,0,1-3.287-3.231q-.045-6.628-.005-13.256a3.248,3.248,0,0,1,3.389-3.256Q-714.4-407.6-710.045-407.6Zm9.879,5.381c-.219.144-.308.2-.394.26q-4.325,3.026-8.65,6.052a1.176,1.176,0,0,1-1.733,0q-2.782-1.939-5.558-3.887l-3.444-2.411c-.02.19-.036.269-.036.347q0,5.251,0,10.5c0,.905.455,1.321,1.42,1.322q8.488.005,16.977,0c1.016,0,1.421-.424,1.422-1.451q0-2.69,0-5.379Zm-19.657-2.575,9.747,6.825,9.752-6.829a1.114,1.114,0,0,0-1.145-.624c-1.815.005-3.63,0-5.445,0q-5.83,0-11.659,0C-719.083-405.426-719.556-405.379-719.824-404.8Z" fill="#fff"/>
  </g>
</svg>
