<svg xmlns="http://www.w3.org/2000/svg" width="119.734" height="108.414" viewBox="0 0 119.734 108.414">
  <g id="Estela_Bônus" data-name="Estela Bônus" transform="translate(-272 -3587.482)">
    <path id="Caminho_30" data-name="Caminho 30" d="M-233.085,447.64l-4.154,4.642-3.4-.281-3.621,4.866-5.208,3.924-3.032,1.862,3.874,12.142,1.681,6.088.527,3.206,1.552,1.52-2.769,2.09,1.037.348,1.312-.2.561.83.37.123.039.465.79,1.121-.611.308.953,3.364,1.295,4.232-1.681-1.048.213,1.592-1.582-1.178.264-1.121L-260.6,486.443l-1.261-4.484-3.885,1.923-1.76-2.31a10.363,10.363,0,0,1-2.7-1.412c-1.318-.981-3.924-3.224-3.924-3.224l-10.37,7.013-6.486,5.09-2.169,1.777-3.459.527-.914,3.312-2.758,2.1-2.949,1.043-3.431,2.954-3.879,1.917-2.141,1.508,13.942-31.066,2.292-8.56-3.6-3.784a12.188,12.188,0,0,1-4.484-.471l-1.608-3.666A15.252,15.252,0,0,1-310.712,454l-2.882-2.483-2.45-1.161-2.847-1.205.359-.8a2.235,2.235,0,0,0-1.256-.09l-.746-1.094-1.867-1.21a20.145,20.145,0,0,1-4.025-2.444l11.828-1.441,5.667.123,2.029,3.677,5.668-2.887,4.529-.348,3.98-.3,6.138-1,3.818-.841,5.953-16.3,1.861-6.43,3.711-8.661.561-2.742,2.836-5.606,2.551,14.143-1.681,5.528,4.355-.863-.9,6.015,1.816,1.76,3.285,12.462,13.258-1.81,3.425,2.713,1.463-3.363,8.022-.6s8.532-.1,10.247-.23l6.311-.476Z" transform="translate(598.425 3191.717)" fill="#222022"/>
    <path id="Caminho_31" data-name="Caminho 31" d="M-233.085,447.64l-4.154,4.642-3.4-.281-3.621,4.866-5.208,3.924-3.032,1.862,3.874,12.142,1.681,6.088.527,3.206,1.552,1.52-2.769,2.09,1.037.348,1.312-.2.561.83.37.123.039.465.79,1.121-.611.308.953,3.364,1.295,4.232-1.681-1.048.213,1.592-1.582-1.178.264-1.121L-260.6,486.443l-1.261-4.484-3.885,1.923-1.76-2.31a10.363,10.363,0,0,1-2.7-1.412c-1.318-.981-3.924-3.224-3.924-3.224l-10.37,7.013-6.486,5.09-2.169,1.777-3.459.527-.914,3.312-2.758,2.1-2.949,1.043-3.431,2.954-3.879,1.917-2.141,1.508,13.942-31.066,2.292-8.56-3.6-3.784a12.188,12.188,0,0,1-4.484-.471l-1.608-3.666A15.252,15.252,0,0,1-310.712,454l-2.882-2.483-2.45-1.161-2.847-1.205.359-.8a2.235,2.235,0,0,0-1.256-.09l-.746-1.094-1.867-1.21a20.145,20.145,0,0,1-4.025-2.444l11.828-1.441,5.667.123,2.029,3.677,5.668-2.887,4.529-.348,3.98-.3,6.138-1,3.818-.841,5.953-16.3,1.861-6.43,3.711-8.661.561-2.742,2.836-5.606,2.551,14.143-1.681,5.528,4.355-.863-.9,6.015,1.816,1.76,3.285,12.462,13.258-1.81,3.425,2.713,1.463-3.363,8.022-.6s8.532-.1,10.247-.23l6.311-.476Z" transform="translate(607.425 3186.717)" fill="#fff"/>
  </g>
</svg>
