<svg xmlns="http://www.w3.org/2000/svg" width="10.006" height="20.934" viewBox="0 0 10.006 20.934">
  <g id="Facebook" transform="translate(881.168 306.169)">
    <path id="Caminho_65" data-name="Caminho 65" d="M-871.162-306.166v3.554c-.719,0-1.426-.017-2.133,0-1.045.031-1.308.3-1.335,1.331-.016.6,0,1.21,0,1.816a1.5,1.5,0,0,0,.062.26h3.163l-.388,3.5H-874.6v10.462h-4.748v-10.42h-1.82V-299.2h1.805c0-.627-.018-1.181,0-1.734a15.844,15.844,0,0,1,.145-2,3.535,3.535,0,0,1,3.154-3.106,7.75,7.75,0,0,1,1.135-.118C-873.7-306.176-872.466-306.166-871.162-306.166Z" transform="translate(0)" fill="#fff"/>
  </g>
</svg>
