<svg xmlns="http://www.w3.org/2000/svg" width="23.861" height="23.858" viewBox="0 0 23.861 23.858">
  <g id="Instagram" transform="translate(1014.039 431)">
    <path id="Caminho_62" data-name="Caminho 62" d="M-990.178-424.892v11.646c-.039.244-.064.491-.118.731a6.5,6.5,0,0,1-4.913,5.176c-.348.1-.713.132-1.07.2h-11.644c-.075-.014-.15-.033-.226-.041a5.865,5.865,0,0,1-1.881-.5,6.427,6.427,0,0,1-3.982-6.077c-.049-3.54-.014-7.081-.011-10.621a6.26,6.26,0,0,1,.836-3.229,6.47,6.47,0,0,1,5.871-3.383c3.477-.019,6.955-.009,10.433,0a6.322,6.322,0,0,1,1.341.121,6.472,6.472,0,0,1,5.168,4.9C-990.276-425.615-990.241-425.249-990.178-424.892Zm-2.114,5.847q0-2.6,0-5.193a4.74,4.74,0,0,0-.24-1.6,4.463,4.463,0,0,0-4.371-3.038c-3.461,0-6.923-.011-10.384.009a5.111,5.111,0,0,0-1.575.241,4.41,4.41,0,0,0-3.047,4.355c0,3.47-.011,6.94.009,10.41a5.055,5.055,0,0,0,.238,1.553,4.4,4.4,0,0,0,4.328,3.052q5.238.013,10.477,0a4.408,4.408,0,0,0,3.732-1.883,4.476,4.476,0,0,0,.833-2.733Q-992.295-416.46-992.292-419.045Z" fill="#fff"/>
    <path id="Caminho_63" data-name="Caminho 63" d="M-983.31-406.427a6.172,6.172,0,0,1-6.161,6.137,6.17,6.17,0,0,1-6.13-6.168,6.169,6.169,0,0,1,6.149-6.125A6.172,6.172,0,0,1-983.31-406.427Zm-6.138-4.036a4.03,4.03,0,0,0-4.033,4.018,4.03,4.03,0,0,0,4.018,4.034,4.03,4.03,0,0,0,4.033-4.019A4.03,4.03,0,0,0-989.447-410.463Z" transform="translate(-12.646 -12.631)" fill="#fff"/>
    <path id="Caminho_64" data-name="Caminho 64" d="M-959.043-418.272a1.558,1.558,0,0,1,1.552,1.556,1.562,1.562,0,0,1-1.551,1.536,1.562,1.562,0,0,1-1.553-1.558A1.558,1.558,0,0,1-959.043-418.272Z" transform="translate(-36.656 -8.73)" fill="#fff"/>
  </g>
</svg>
