<svg xmlns="http://www.w3.org/2000/svg" xmlns:xlink="http://www.w3.org/1999/xlink" width="183.846" height="98.25" viewBox="0 0 183.846 98.25">
  <defs>
    <linearGradient id="linear-gradient" x1="43.163" y1="70.773" x2="-161.349" y2="-266.833" gradientUnits="objectBoundingBox">
      <stop offset="0" stop-color="#8e5bf2"/>
      <stop offset="1" stop-color="#00ede3"/>
    </linearGradient>
    <linearGradient id="linear-gradient-2" x1="67.65" y1="60.585" x2="-236.488" y2="-211.553" xlink:href="#linear-gradient"/>
    <linearGradient id="linear-gradient-3" x1="1.667" y1="1.099" x2="-5.772" y2="-2.6" xlink:href="#linear-gradient"/>
    <linearGradient id="linear-gradient-4" x1="15.82" y1="26.571" x2="-185.618" y2="-315.44" xlink:href="#linear-gradient"/>
    <linearGradient id="linear-gradient-5" x1="0.695" y1="0.847" x2="-2.784" y2="-2.834" xlink:href="#linear-gradient"/>
    <linearGradient id="linear-gradient-6" x1="0.495" y1="0.668" x2="-3.948" y2="-3.016" xlink:href="#linear-gradient"/>
    <linearGradient id="linear-gradient-7" x1="73.671" y1="272.875" x2="-120.067" y2="-448.291" xlink:href="#linear-gradient"/>
    <linearGradient id="linear-gradient-8" x1="89.744" y1="153.588" x2="-148.45" y2="-255.001" xlink:href="#linear-gradient"/>
    <linearGradient id="linear-gradient-9" x1="83.36" y1="145.489" x2="-149.364" y2="-261.939" xlink:href="#linear-gradient"/>
    <linearGradient id="linear-gradient-10" x1="103.986" y1="146.263" x2="-181.372" y2="-255.963" xlink:href="#linear-gradient"/>
    <linearGradient id="linear-gradient-11" x1="64.032" y1="52.56" x2="-305.631" y2="-250.354" xlink:href="#linear-gradient"/>
    <linearGradient id="linear-gradient-12" x1="1.107" y1="0.939" x2="-3.078" y2="-2.76" xlink:href="#linear-gradient"/>
    <linearGradient id="linear-gradient-13" x1="45.422" y1="78.7" x2="-167.539" y2="-291.699" xlink:href="#linear-gradient"/>
    <linearGradient id="linear-gradient-14" x1="54.675" y1="222.767" x2="-113.65" y2="-468.118" xlink:href="#linear-gradient"/>
    <linearGradient id="linear-gradient-15" x1="1.462" y1="1.535" x2="-2.239" y2="-2.164" xlink:href="#linear-gradient"/>
    <linearGradient id="linear-gradient-16" x1="28.271" y1="49.273" x2="-203.737" y2="-358.772" xlink:href="#linear-gradient"/>
    <linearGradient id="linear-gradient-17" x1="1.261" y1="1.228" x2="-2.508" y2="-2.45" xlink:href="#linear-gradient"/>
    <linearGradient id="linear-gradient-18" x1="2.306" y1="1.382" x2="-5.391" y2="-2.318" xlink:href="#linear-gradient"/>
    <linearGradient id="linear-gradient-19" x1="1.875" y1="1.78" x2="0.171" y2="0.195" xlink:href="#linear-gradient"/>
    <linearGradient id="linear-gradient-20" x1="1.03" y1="1.164" x2="-0.19" y2="-0.374" xlink:href="#linear-gradient"/>
    <linearGradient id="linear-gradient-21" x1="1.557" y1="1.645" x2="-0.007" y2="0.046" xlink:href="#linear-gradient"/>
    <linearGradient id="linear-gradient-22" x1="1.502" y1="1.511" x2="-0.437" y2="-0.113" xlink:href="#linear-gradient"/>
    <linearGradient id="linear-gradient-23" x1="2.237" y1="1.339" x2="-1.101" y2="-0.248" xlink:href="#linear-gradient"/>
    <linearGradient id="linear-gradient-24" x1="1.914" y1="2.002" x2="0.316" y2="0.39" xlink:href="#linear-gradient"/>
  </defs>
  <g id="Logo_Berlim_1" data-name="Logo Berlim 1" transform="translate(-413.702 285.217)">
    <g id="Grupo_1" data-name="Grupo 1" transform="translate(508.498 -221.607)">
      <path id="Caminho_2" data-name="Caminho 2" d="M606.669-186.707c.029.067.068.1.115.093l.069-.007c.024,0,.049-.1.08-.286A.28.28,0,0,0,606.669-186.707Z" transform="translate(-560.209 195.263)" fill="url(#linear-gradient)"/>
      <path id="Caminho_3" data-name="Caminho 3" d="M593.471-181.593l.139-.015.039-.35-.139.015Z" transform="translate(-556.672 193.936)" fill="url(#linear-gradient-2)"/>
      <path id="Caminho_4" data-name="Caminho 4" d="M601.508-191.948l.015-.028-.039,0a1.039,1.039,0,0,0-.389-.268l.151-.079a.616.616,0,0,0-.418-.337l-.33.209-1.287.138-.077-.1-1.042.492-1.253.134-.467.257-.506,6.218.132.678a.884.884,0,0,0-.174.365.27.27,0,0,0,.17-.053l.062-.076.023-.275a.84.84,0,0,0,.078.1c-.007.018-.017.032-.024.051-.053.141-.092.248-.122.343a.147.147,0,0,0-.038.013.159.159,0,0,1-.07.026.254.254,0,0,1-.1.045.408.408,0,0,0,.151.212,1.84,1.84,0,0,0,0,.28c-.016.088-.034.175-.05.263-.005.005-.01.007-.015.013-.052.064-.1.122-.142.173l-.16,1.713a51.75,51.75,0,0,0-.5,5.388l-.143,1.537.1,1.108c0,.13,0,.258,0,.388l-.523,6.444a2.722,2.722,0,0,0,.144-.344.528.528,0,0,1,.045-.084,1.006,1.006,0,0,0,.2.7.684.684,0,0,0-.073.074c-.112-.2-.176-.258-.194-.187a.764.764,0,0,1-.193.575l.819-.2a.951.951,0,0,0,.338.062.849.849,0,0,0,.721-.355.317.317,0,0,0,.371.152.709.709,0,0,1,.459.02l2.566-.69.276-3.423-.163-3.271a.573.573,0,0,0,.175-.383,3.523,3.523,0,0,1,.035-.368l.171-2.146a33.771,33.771,0,0,0,.758-6.515l.717-8.42A.788.788,0,0,0,601.508-191.948Zm-5.08,3.156c0,.221.007.471.01.73a.7.7,0,0,0-.08.094Z" transform="translate(-556.937 196.805)" fill="url(#linear-gradient-3)"/>
      <path id="Caminho_5" data-name="Caminho 5" d="M622.235-171.845l.193-.193-.08-.1-.188.228Z" transform="translate(-564.36 191.304)" fill="url(#linear-gradient-4)"/>
      <path id="Caminho_6" data-name="Caminho 6" d="M634.214-172.353l-1.66-10.28-.026-2.525-1.314-6.542c.2-.113.291-.239.281-.377l-.959-3.5-.769-.335-1.981.213a.065.065,0,0,1,.065-.077l.033,0,.175-.019a.1.1,0,0,0,.073.027l.031-.037c-.047,0-.065-.011-.057-.046a.049.049,0,0,0-.042-.066,1.07,1.07,0,0,0-.245.009,4.1,4.1,0,0,0-.6.135l-.769.774a3.572,3.572,0,0,1-.2.489,2.466,2.466,0,0,0-.172.417l-1.346,3.987-.054.941-.615,2.8-.4.216c.118.033.185.067.2.1a.157.157,0,0,1-.005.122,1.719,1.719,0,0,0-.29.652l-1.821,6.428-.045.63-2.564,7.128-.15,2.13.693-.075.533-.679.725.234,1.63-.174,1.624-.659.064-1.184.752-2.469q.051-.247.083-.425a.481.481,0,0,0-.007-.275.307.307,0,0,1,.2-.126,1.1,1.1,0,0,1,.5.067.353.353,0,0,0,.441-.168l.625.315,1.9.005.137,2.964.247,1.151.447-.116a.817.817,0,0,1-.057.162c-.017.036-.039.078-.059.127l.193.187c.018-.049-.023-.113-.122-.194l.162-.122,1.19.324,2.223-.239a1.1,1.1,0,0,0,.358-.09.862.862,0,0,0,.281-.2c.085-.091.181-.2.285-.324s.242-.28.412-.46l.038-.351Zm-8.56-3-.208.021.02-.141.209-.022Zm2.7-4.859-.732.078-.532-.083c-.255.029-.41,0-.464-.089l.157-.189.01-.278,1.231-4.113.523,3.908-.054-.012-.124.187.112.056.078-.146.046.342C628.536-180.543,628.453-180.43,628.358-180.211Z" transform="translate(-563.511 197.678)" fill="url(#linear-gradient-5)"/>
      <path id="Caminho_7" data-name="Caminho 7" d="M653.905-177.954c-.086-.164-.186-.24-.3-.228l-5.942.635-.187-.118.073-.909a.92.92,0,0,0,.077-.269q.574-5.074.671-10.18a.945.945,0,0,0-.069-.384l.462-4.94c-.052-.042-.047-.058.012-.054s.093-.05.106-.168l.1-1.533.195-.195.08-1.013-.208-.7c-.105.1-.2.125-.273.065l.247-.373-1.357.146a.375.375,0,0,0-.25.147c-.072.089-.132.135-.18.141l-2.183-.079a2.08,2.08,0,0,1-.283.152.989.989,0,0,1-.291.083l-.375.871-.195,2.028a1.049,1.049,0,0,0-.108.151.242.242,0,0,0-.042.143.306.306,0,0,1,.2.255l-.873,7.538.125,1.337-.569,7.055-.2.506a.115.115,0,0,1,.112.058.154.154,0,0,1,.012.136l-.045,3.3-.335,1.282-.022.522c-.013.118-.005.18.018.188s.038.038.041.082a.6.6,0,0,1,.024.43c-.044.155.034.313.239.476l2.408-.5a.511.511,0,0,0,.343-.089.493.493,0,0,1,.2-.108l1.4-.011,1.132-.259.152.12a1.612,1.612,0,0,1,.216-.143.72.72,0,0,1,.189-.037.346.346,0,0,1,.25.044.284.284,0,0,0,.214.044l3.4-.363.606-.272.255.111a.387.387,0,0,1,.231-.163l.481-.848.315-3.773A.688.688,0,0,1,653.905-177.954Zm-5.168-18.891-.151.64c0-.046-.008-.1-.016-.171a.229.229,0,0,0-.086-.163Z" transform="translate(-569.701 198.321)" fill="url(#linear-gradient-6)"/>
      <path id="Caminho_8" data-name="Caminho 8" d="M553.68-187.624a.541.541,0,0,1-.2.09.145.145,0,0,0-.077.048l.01-.005A1.36,1.36,0,0,0,553.68-187.624Z" transform="translate(-545.935 195.454)" fill="url(#linear-gradient-7)"/>
      <path id="Caminho_9" data-name="Caminho 9" d="M554.882-187.806l-.108-.023-.118.221.105.022Z" transform="translate(-546.271 195.509)" fill="url(#linear-gradient-8)"/>
      <path id="Caminho_10" data-name="Caminho 10" d="M559.509-187.024l-.109-.022-.123.186.11.058Z" transform="translate(-547.509 195.3)" fill="url(#linear-gradient-9)"/>
      <path id="Caminho_11" data-name="Caminho 11" d="M558.167-187.24l-.057-.236-.131.083.086.164Z" transform="translate(-547.161 195.415)" fill="url(#linear-gradient-10)"/>
      <path id="Caminho_12" data-name="Caminho 12" d="M623.961-189.81l-.139.014-.006.314.139-.015Z" transform="translate(-564.804 196.04)" fill="url(#linear-gradient-11)"/>
      <path id="Caminho_13" data-name="Caminho 13" d="M618.394-192.653a.35.35,0,0,0-.13-.248l-.535-.081.963-1.349a.437.437,0,0,0-.155.051.992.992,0,0,1-.325.069l-.233-.217c-.165.225-.292.343-.386.353-.052-.041-.108-.087-.171-.138a.245.245,0,0,0-.165-.068c-.006.009-.015.015-.022.023a.869.869,0,0,0-.151-.047l.392-.277c-.069.031-.209.109-.417.236-.017.01-.029.018-.046.029a.984.984,0,0,0-.184-.012l-.543.019-.35-.21-.332.207-.119-.16-.59.061-.114.154-.876.031.219-.172-.044-.1-.387.279-.411.015-.056-.028-.425.045-.195.007a12.761,12.761,0,0,0-3.26.32c-.152.014-.307.026-.454.048a.115.115,0,0,0-.086-.018.147.147,0,0,0-.1.045h0l-.138.025-.119-.138-.8.085a2.512,2.512,0,0,1-.534.318,2.744,2.744,0,0,0-.5.278,2.642,2.642,0,0,0-.436.392,1.45,1.45,0,0,0-.307.655l-.063.838.114.474-.085,1.325.154.155a.678.678,0,0,0,.105-.183,1.874,1.874,0,0,1,.1-.22.091.091,0,0,1,.055.013.07.07,0,0,0,.051.012l.039.029c.036-.119.077-.181.124-.187l.148.469c.036-.119.09-.182.16-.19a2.553,2.553,0,0,0,.269.456.411.411,0,0,0,.457.194l.444-.151c.049.04.044.122-.016.242l1.7-.181.476.225-.878,10.862a.971.971,0,0,1-.1.288l-.133.258a.348.348,0,0,0-.013.26.352.352,0,0,1,.022.223l-.276,1.17-.01,1.387-.081.632a.392.392,0,0,0,.1.3.415.415,0,0,1,.1.3l-.126,1.295-.405,1.289,0,1.143-.094.113.227.184-.1.079.438,1.3,2.711-.289a2.01,2.01,0,0,0,.495-.138,3.845,3.845,0,0,0,.584-.307,3.337,3.337,0,0,0,.541-.42,3.161,3.161,0,0,0,.394-.457l-.031-.7a7.961,7.961,0,0,0,.089-2.484l.315-1.463-.153-.155a.6.6,0,0,0,.2-.541l1.2-14.566.694-.075a.274.274,0,0,0,.026-.123.284.284,0,0,1,.053-.162l1.944-.208.247-.373.232.219a.411.411,0,0,0-.069-.167.186.186,0,0,1-.034-.171.784.784,0,0,0,.089-.545.836.836,0,0,1,0-.432,2.739,2.739,0,0,0,.216-.3.739.739,0,0,0,.113-.29l.045-.281-.3-.175A1.367,1.367,0,0,0,618.394-192.653Zm-12.073,2.241-.14.015.036-.384.139-.014Zm.064-1.228-.052-.124.046-.662.084.253A2.439,2.439,0,0,0,606.386-191.64Zm5.3,18.071-.005.346-.124.013c-.037-.247-.064-.5-.086-.747l0-.005A.729.729,0,0,0,611.686-173.569Z" transform="translate(-559.98 197.319)" fill="url(#linear-gradient-12)"/>
      <path id="Caminho_14" data-name="Caminho 14" d="M620.417-194.521l-.158-.19-.095.114.191.154Z" transform="translate(-563.826 197.354)" fill="url(#linear-gradient-13)"/>
      <path id="Caminho_15" data-name="Caminho 15" d="M573.075-188.4l.248.041.062-.11-.32-.034Z" transform="translate(-551.204 195.689)" fill="url(#linear-gradient-14)"/>
      <path id="Caminho_16" data-name="Caminho 16" d="M557.762-181.537l-.323-.449a.316.316,0,0,0,.012-.243c-.029-.067-.057-.1-.078-.1a.635.635,0,0,0,.185-.264,1.759,1.759,0,0,1,.083-.251l-.226-.91-1.143-1.713a.528.528,0,0,1,.1-.1.2.2,0,0,0,.059-.093l-.272.1c-.078-.084-.181-.2-.313-.348a3.859,3.859,0,0,0-.442-.42,2.288,2.288,0,0,0-.5-.309.7.7,0,0,0-.462-.055l-.631-.763a.524.524,0,0,0-.274.1l-.833-.292a.264.264,0,0,0,.026.1c.015.022-.026.037-.119.048l-1.111.118c-.116.015-.186,0-.214-.046s-.062-.04-.1.012l-.562-.009a.324.324,0,0,1,.052-.071.8.8,0,0,0-.253.162l-.286-.039a.17.17,0,0,1,.165-.1.191.191,0,0,0,.17-.07.337.337,0,0,1-.253-.077.512.512,0,0,1-.281.184.915.915,0,0,0-.286.119c-.052-.041-.062-.081-.028-.118a.512.512,0,0,0,.074-.129l-.291.273a.555.555,0,0,0-.25-.061.36.36,0,0,1-.259-.127l-1.32.141a1.3,1.3,0,0,1-.34.295,3,3,0,0,0-.379.265.55.55,0,0,0-.143-.4l-.157.19a.375.375,0,0,0-.216-.045c-.067.006-.127.012-.173.018a.962.962,0,0,1-.22.248c-.109.093-.206.179-.293.257a3.321,3.321,0,0,0-.249.7c-.069.274-.125.528-.174.764a.945.945,0,0,1,.189.343.614.614,0,0,1,.047.324l-.8,7.945-.474,2.821-.982,12.017a.3.3,0,0,0,.075.251.4.4,0,0,0,.206.135.091.091,0,0,1-.028.07l-.032.04c-.1-.06-.142-.072-.127-.039a.292.292,0,0,0,.113.109,1.717,1.717,0,0,1,.19.136c.065.05.108.075.129.072l2.612-.591,1.5.289,2.534-.652a1.742,1.742,0,0,1,.433-.253.971.971,0,0,0,.395-.285,4.9,4.9,0,0,1,.745-.287q.374-.109.75-.253a5.307,5.307,0,0,0,.737-.357,4.455,4.455,0,0,0,.755-.565c.182-.3.4-.66.653-1.091a6.508,6.508,0,0,1,.887-1.187l1.271-3.32.682-8.453-.082-3.523Zm-6.035,9.406.181,1.539-.068.769-.33,1.351-.959,2.145-.417.045-.9-.217-.129.014c-.01-1.281.031-2.561.13-3.839l.184-.938a.186.186,0,0,1-.083-.113s0-.005-.005-.009c.012-.118.023-.236.036-.355.018-.04.038-.082.064-.129a1.868,1.868,0,0,0,.143-.345l.079-.666a.62.62,0,0,0-.16-.1,1.627,1.627,0,0,0-.041-.285l.28-3.643c-.147-.077-.2-.157-.162-.242s-.016-.167-.163-.242a1.106,1.106,0,0,0,.094-.3.55.55,0,0,1,.162-.314l.326-3.669-.119-.127-.1.079.066-.8c-.011-.113-.027-.169-.049-.167a.183.183,0,0,1-.112-.058l.157-.19-.029-.307.493.015.423-.357.424.406a.262.262,0,0,1,.242-.044,1.352,1.352,0,0,1,.255.094.442.442,0,0,1-.183.124.338.338,0,0,0-.178.157l1.135,1.263c.008.069-.053.157-.184.262a.5.5,0,0,1,.116.127c.029.043.088.06.181.049Z" transform="translate(-543.201 195.46)" fill="url(#linear-gradient-15)"/>
      <path id="Caminho_17" data-name="Caminho 17" d="M591.931-163.1l.112.056.121-.221-.108-.023Z" transform="translate(-556.26 188.933)" fill="url(#linear-gradient-16)"/>
      <path id="Caminho_18" data-name="Caminho 18" d="M587.761-179.877c-.041-.04-.079-.079-.129-.119l-.028.021a1.845,1.845,0,0,0-.923-.143c-.917.045-1.845.195-2.764.329a.442.442,0,0,0-.125,0l-2.26.242-.392,4.786,1.291-.138.06.028.009.01a44.367,44.367,0,0,1-.337,4.564,1.064,1.064,0,0,0,0,.136l-.909.722-1.077.114a.5.5,0,0,1-.433-.126,1.674,1.674,0,0,1-.283-.4c-.085-.164-.166-.329-.238-.495a1.987,1.987,0,0,0-.269-.437l.13-.465.3-2.11.952-10.455a.531.531,0,0,0-.027-.274.231.231,0,0,1,.018-.209,1.234,1.234,0,0,1,.149-.275.235.235,0,0,0,.049-.231l.187-.228a.889.889,0,0,1,.263-.2,2.458,2.458,0,0,0,.477-.172,2.809,2.809,0,0,1,.438-.167c.045-.029.106-.07.184-.124a.5.5,0,0,1,.252-.1l.7-.006a2.479,2.479,0,0,1,.375.619,2.224,2.224,0,0,0-.04.507c0,.172.013.339.027.5a.11.11,0,0,0,.111.056c.046,0,.062.051.053.167l-.045.663a.307.307,0,0,0,.059.253.558.558,0,0,1,.124.212.326.326,0,0,1-.113.1.082.082,0,0,0-.043.091l.7.409,3.474-.37.489-.78-.149-.42c.035-.116.069-.235.1-.357.013-.029.029-.061.039-.087l-.017-.013c.485-2.066.219-4.8-1.649-6.044a5.216,5.216,0,0,0-4.049-.484l-.266-.022-2.075.706-.311.033-1.111.5-.492-.015c-.232.3-.488.61-.776.93s-.556.608-.813.866c-.149.408-.305.81-.464,1.209s-.316.813-.464,1.244l-.293,1,0,1.525-.324,2.179-.607,7.406-.348,2.253.015,1.7-.06.838c-.012.118.008.16.065.132s.077,0,.062.1a1.255,1.255,0,0,0,.138.556c.1.233.215.469.332.709a6.907,6.907,0,0,0,.339.64,2.107,2.107,0,0,0,.2.307,3.388,3.388,0,0,0,.468.487,1.412,1.412,0,0,0,.52.307,4.262,4.262,0,0,0,.621.471,2.02,2.02,0,0,0,.785.315,3.781,3.781,0,0,0,.534.29,1.018,1.018,0,0,0,.451.124l1.077-.114.157-.19.5.12,1.321-.142a2.191,2.191,0,0,0,.49-.207l.8-.416q.419-.218.747-.426l.4-.251a11.577,11.577,0,0,0,1.189-1.165q.541-.612.981-1.144.142-.36.3-.725t.308-.656a.3.3,0,0,1-.065-.305l.157-.188a.085.085,0,0,0-.055-.03c-.01,0-.031-.007-.054-.028a.108.108,0,0,1-.075-.029l-.053.145-.035.039-.083-.13.49-.4.115-1.542a.869.869,0,0,0,.3-.649c.008-.512.035-1.023.07-1.533l.068-.457c-.011-.026-.018-.056-.028-.084q.081-.939.214-1.875c.122-.863.606-2.125.282-2.978A1.135,1.135,0,0,0,587.761-179.877Z" transform="translate(-551.476 196.356)" fill="url(#linear-gradient-17)"/>
      <path id="Caminho_19" data-name="Caminho 19" d="M570.814-186.029l.035-2.254-.141.172a.963.963,0,0,1-.162.142.925.925,0,0,0-.209-.48c0-.018,0-.037,0-.056l.19-.194a.487.487,0,0,0-.166-.087c-.059-.015-.079-.048-.061-.1l.335-.175a.609.609,0,0,0-.417-.336l-.332.209-1.287.138-.078-.1-1.042.491-1.25.135-.469.257-.506,6.218.133.678a.9.9,0,0,0-.175.366.275.275,0,0,0,.171-.053l.019-.024-.015.173a.234.234,0,0,0-.025.01.157.157,0,0,1-.069.025.274.274,0,0,1-.1.045.418.418,0,0,0,.169.227l-.044.509a.371.371,0,0,0-.036.033c-.051.064-.1.122-.138.171l-.808,8.638.113,1.228L564.276-168a.987.987,0,0,0,.006.225l-.361,4.472c.048-.1.086-.193.12-.283a.939.939,0,0,0,.385.473.62.62,0,0,0-.193.158c-.111-.2-.175-.26-.193-.187a.746.746,0,0,1-.193.574l1.475-.365c.023,0,.033-.026.029-.073,0,0,0-.007,0-.011a.74.74,0,0,0,.124-.07h.007l.209-.023a.326.326,0,0,0,.4.2.7.7,0,0,1,.459.021l2.568-.69.277-3.422-.166-3.273a.562.562,0,0,0,.175-.381c.009-.151.02-.273.035-.368l.274-3.457c.013-.093.037-.108.065-.041s.052.042.064-.076l.073-.975a1,1,0,0,0,.141-.457c.13-2.5.4-5.069.512-7.618l.071-.074a.141.141,0,0,1-.068-.006q.024-.547.036-1.093ZM570.7-187.3l-.037.732a.249.249,0,0,0-.045.033c-.007-.294-.018-.587-.031-.879A.3.3,0,0,1,570.7-187.3Z" transform="translate(-548.734 195.928)" fill="url(#linear-gradient-18)"/>
    </g>
    <path id="Caminho_20" data-name="Caminho 20" d="M489.809-266.3l-2.583.714-7.921,1.116-.876.08c-.264.023-.4-.031-.415-.163a.5.5,0,0,0-.191-.345l-3.978.36c-.266.023-.4.009-.406-.044s-.059-.075-.166-.065l-4.042.525-2.589-.247-1.831.165-1.8,5.858-.751,20.12-.928,6.58-.552,2.777-.445,4.853.425,3.812-1.22,6.045.047,4.969-.247,3.471,1.5,1.549a2.121,2.121,0,0,0,.622.1.509.509,0,0,0,.681.336c2.4-.843,4.8-.717,7.266-1.113.616-.1,1.23-.206,1.844-.317l.182.2a3,3,0,0,1,1.671-.151l1.62-.707a1.037,1.037,0,0,0,1,.471l1.114-.1.291-.346.347.289,3.052-.837,2.756.313.636-.057.346-.414a3.416,3.416,0,0,0,1.091-.227.6.6,0,0,0,.37-.4,1.367,1.367,0,0,1,.133.3l1.015-2.979.472-5.418a1.2,1.2,0,0,0-.19-.784,1.741,1.741,0,0,1-.271-.778,6.132,6.132,0,0,0-1.623-1.539,3.26,3.26,0,0,0-1.538-.583,1.553,1.553,0,0,0-.792.113.424.424,0,0,1-.479,0l-3.625,1.611a.288.288,0,0,0-.4.035.784.784,0,0,1-.543.209l-6.524.589,1.057-13.17,4.456-.4,4.838.285,3.2-1.01-.035-.4a5.066,5.066,0,0,1,.4-.437,1.406,1.406,0,0,1,.575-.293l.791-2.8.16-1.78.443-1.323-.933-3.206c-.332-.13-.677-.246-1.034-.347a4.169,4.169,0,0,1-.788-.29,2.86,2.86,0,0,1-.954.086,8.473,8.473,0,0,0-1.2.028,1.9,1.9,0,0,1,0,.294.747.747,0,0,0-.094-.009,35.132,35.132,0,0,0-7.419.393l-1.714.155a1.643,1.643,0,0,0,.412-1.2,7.849,7.849,0,0,0-.2-.906c.242-.288.357-.485.348-.591l.345-8.614c-.042.111-.076.194-.1.25a.505.505,0,0,1-.044.08c.044-.236.081-.474.114-.716a7.125,7.125,0,0,0,.108-1.457l7.06.076,5-.611,2.415-.78a.158.158,0,0,0-.05-.116.16.16,0,0,1-.048-.115l-.088-.072a3.248,3.248,0,0,1,.417-.72,3.948,3.948,0,0,1,.966-.848l1.2-6.2Z" transform="translate(-12.231 -5.07)" fill="url(#linear-gradient-19)"/>
    <path id="Caminho_21" data-name="Caminho 21" d="M647.984-280.084l.283-3.107a4.125,4.125,0,0,0,.008-.811,1.449,1.449,0,0,0-.476-.848l-3.964-.368-4.187.706c-.258.131-.575.3-.959.493a3.924,3.924,0,0,0-.944.654q-1.715,3.237-3.129,6.283t-2.742,6.128q-1.329,3.08-2.559,6.353t-2.587,6.963c-.1.116-.144.176-.144.176l-.073.087-.261-.218.189-1.477-.575-3.757-5.14-14.446.2-2.206a1.6,1.6,0,0,0-.064-.724,7.827,7.827,0,0,0-.111-.8,2.97,2.97,0,0,0-.271-.785,11.319,11.319,0,0,0-1.015-1.042c-.378-.344-.648-.509-.806-.493l-.558.05-2.367,1.35-1.149-.3-2.147.2-2.951,1.079-.966,4.465.271,5.73-.824,9.64-.791,5.5.347.293a3.839,3.839,0,0,0-.289.8,1.24,1.24,0,0,1-.385.643l-.265,7.806-1.089,6.664a1.212,1.212,0,0,1,.244.95l.07,3.479-.479,6.287a2.178,2.178,0,0,1-.287.836q-.244.427-.445.851a5.7,5.7,0,0,0,.313,3.052,10.59,10.59,0,0,1,.7,2.855c0,.053.065.128.179.227a.237.237,0,0,1,.1.152.459.459,0,0,0,.3-.19.774.774,0,0,1,.542-.211l7.56-.69,1.619-.716.421-12.359.747-5.093L617.027-245a.538.538,0,0,1,.384-.2l4.318,11.521c.2-.127.335-.139.4-.037a1.216,1.216,0,0,0,.267.3l5.489-.5.26.22,3.268-7.431c-.059-.05-.1-.234-.131-.556l.267-.871c.019-.038.04-.075.059-.113a2.889,2.889,0,0,0,.459-1.575l.085-.276a1.5,1.5,0,0,1,.027.769c-.056.248-.1.482-.136.7l1.794-4.135c.055-.005.082.006.085.033s.029.037.083.033a.071.071,0,0,0,.087.073l-1.684,20.661a7.375,7.375,0,0,1,1.08,1.766,2.1,2.1,0,0,0,1.5,1.079l1.619-.716,5.65-.515a1.728,1.728,0,0,0,.805-.4,4.262,4.262,0,0,0,.706-.631c.086-.225.162-.434.225-.63a1.211,1.211,0,0,0,.08-.454l-.216-1.52a5.273,5.273,0,0,1,.316-.514.72.72,0,0,0,.161-.421l.917-6.811c-.117-.1-.211-.1-.283-.015s-.092.022-.059-.2l1.786-22.21.545-1.995,1.442-17.072Z" transform="translate(-51.134)" fill="url(#linear-gradient-20)"/>
    <path id="Caminho_22" data-name="Caminho 22" d="M533-261.207l.005-.011-.012-.01c-.169-.564-.371-1.119-.586-1.666a.835.835,0,0,0,.02-.278.772.772,0,0,0-.2-.179c-.061-.149-.122-.3-.184-.447a.247.247,0,0,1,.257.076,14.027,14.027,0,0,1-.723-1.339,9.751,9.751,0,0,0-.76-1.334,3.91,3.91,0,0,0-.973-.995,2.1,2.1,0,0,0-1.432-.313,1.784,1.784,0,0,1-.743-1.135l-.748.068a.606.606,0,0,0-.4-.629,20.458,20.458,0,0,0-4.071-1.049l.075-.252-2.384.215q-.407-.036-.814-.069a.594.594,0,0,0-.1,0l-.249-.31-7.609,1.2c-1.672-.122-6.038-.552-5.723,1.59l-.2.194.029.314a5.264,5.264,0,0,0-.766.74c-.016.02-.027.039-.041.059l-.321.028-.441.442-1.231,14.79-1.2,8.049.2,2.228-.111,1.453c.117.1.2.116.246.059s.056.021.021.239l-.32,4.44a.89.89,0,0,0-.414.759l-.917,8.5-.083,7.95c-.1.115-.186.164-.268.144s-.138.105-.168.376l-.437,4.932a2.656,2.656,0,0,1-.141.655,1.041,1.041,0,0,0-.076.488c.138.362.28.724.418,1.085a1.717,1.717,0,0,1,.094,1.034l2.756.313,1.483-.455,2.031.3,5.043-1.9.3-2.915a2.117,2.117,0,0,1-.137-1.069,2.878,2.878,0,0,0-.058-1.078l-.172-1.911,1.59-8.164.554-8.071,1.78-.641q.474,1.669,1.02,3.318c-.067-.191-.133-.362-.2-.506l.187,2.951,1.535,5.476a2.039,2.039,0,0,0-.31.99l3.81,12.008,1.83-.165.76-.469,7.08-.64c-.125-.2-.055-.315.211-.34l.817-1.6-1.963-6.641c-.008.01-.012.019-.02.029a57.943,57.943,0,0,0-1.624-6.631.219.219,0,0,1,.165,0,.726.726,0,0,0,.326.052l-1.925-7.126c-.015.017-.029.037-.043.055a24.932,24.932,0,0,0-.537-2.485l-.113-.795.131-1.216,2.662-2.486,3.287-6.232.146-1.056a3.131,3.131,0,0,0,.25-.344.529.529,0,0,0,.089-.329,1.062,1.062,0,0,1-.246-.94l.927-1.287c-.211.019-.32,0-.323-.051-.055.005-.057-.021-.008-.08.135-.279.242-.436.318-.469s.133-.159.168-.376l.341-4.2a.563.563,0,0,1-.173-.271,7.972,7.972,0,0,0,.194-1.4A9.9,9.9,0,0,0,533-261.207Zm-11.72,9.117-1.529,2.883a.952.952,0,0,1-.614.242.222.222,0,0,0-.047.3.29.29,0,0,1,.031.3l-1.063.539a5.82,5.82,0,0,1-1.381.564,6.48,6.48,0,0,1-1.02.208,4.018,4.018,0,0,1-1.313-.266q-.913-.294-.819-.895l.357-3.323-.529-.422.681-1.1.621-6.045,3.761-.806a5.026,5.026,0,0,1,.75.241,10.431,10.431,0,0,1,1.055.482,3.033,3.033,0,0,1,.921.722,1.247,1.247,0,0,1,.34.9l-.189,1.926.273,1.034Z" transform="translate(-22.862 -3.847)" fill="url(#linear-gradient-21)"/>
    <path id="Caminho_23" data-name="Caminho 23" d="M572.575-221.531a.335.335,0,0,1,.168-.3l.4-4.651a1.624,1.624,0,0,1-.711-.766q-.293-.565-.691-.529l-13.6,1.206-.427-.277,1.108-13.265a.436.436,0,0,0-.163-.08c.013-.108.026-.215.04-.322a.8.8,0,0,0,.166,0l.277-3.1L559-243.7c.008-.126.013-.252.021-.378l.074-.006-.067-.149c.1-1.861.123-3.722.1-5.588l1.438-14.972q-.172-.142.029-.121c.135.015.217-.111.247-.377l.241-3.49.442-.433.189-2.3-.26-.9c-.017-.218-.039-.437-.073-.657a.462.462,0,0,0-.43-.426l.229-.34-3.1.277a.844.844,0,0,0-.572.326c-.168.2-.306.3-.411.313l-5-.265a5.275,5.275,0,0,1-.652.333,2.175,2.175,0,0,1-.665.177l-.862,1.968-.458,4.613a3.22,3.22,0,0,0-.25.337.51.51,0,0,0-.089.324.708.708,0,0,1,.454.589L547.53-247.71l.281,3.05-1.334,16.045-.457,1.145a.258.258,0,0,1,.254.135.326.326,0,0,1,.027.313l-.114,7.5-.775,2.908-.052,1.187c-.029.265-.016.408.041.43s.087.084.1.189a1.386,1.386,0,0,1,.049.98q-.152.527.542,1.1l5.52-1.041a1.127,1.127,0,0,0,.784-.188,1.076,1.076,0,0,1,.46-.238l3.211.031,2.6-.546.347.285a3.606,3.606,0,0,1,.492-.32,1.612,1.612,0,0,1,.433-.078.787.787,0,0,1,.572.107.661.661,0,0,0,.492.114l7.8-.693,1.389-.6.585.262A.879.879,0,0,1,571.3-216l1.108-1.911.168-1.969Z" transform="translate(-35.278 -3.05)" fill="url(#linear-gradient-22)"/>
    <path id="Caminho_24" data-name="Caminho 24" d="M600.272-276.178c-.015.02-.034.038-.052.057q-.081-.973-.255-1.941a.571.571,0,0,0-.082-.212l.232-.119a1.443,1.443,0,0,0-.954-.8l-.761.474-2.944.269-.178-.226-2.389,1.108-2.864.261-1.071.585-1.188,14.537.193,1.016-.082.864a2.2,2.2,0,0,0-.214.561c.062-.006.116-.014.164-.023l-.036.378-.138.147a.771.771,0,0,0-.271.553l.313.328q-.051.556-.1,1.111l-.094.115-1.587,16.984a6.629,6.629,0,0,0-.091.852l.012-.015-.209,2.239a2.213,2.213,0,0,0-.242.333.564.564,0,0,0-.125.518c.028.12.051.24.078.36h0a4.483,4.483,0,0,1,.135,1.012,3.158,3.158,0,0,1-.056.714,2.257,2.257,0,0,0,.2-.315c.081.472.146.945.2,1.419l-1.117,13.744a2.447,2.447,0,0,0-.206.8,1.077,1.077,0,0,0,.4.881,1.86,1.86,0,0,1-.433.955l2.24-.527c.02,0,.037.008.057.009a20.707,20.707,0,0,0,4.672-.193.484.484,0,0,0,.364-.228l4.746-1.217.648-8-.364-7.668a1.3,1.3,0,0,0,.4-.887c.022-.354.049-.639.085-.859l.609-7.672a1.32,1.32,0,0,0,.082-.318c.012-.094.022-.189.035-.283.02.007.042.039.066.1.069.155.117.1.146-.176l.351-4.721q1.1-9.966,1.58-19.985l.335-2.007.09-5.276C600.5-276.456,600.391-276.324,600.272-276.178Z" transform="translate(-45.758 -1.613)" fill="url(#linear-gradient-23)"/>
    <path id="Caminho_25" data-name="Caminho 25" d="M446.185-230.9a8.952,8.952,0,0,0-1.268-2.03,3.549,3.549,0,0,0-1.838-1.207l3.137-6.191.123-1.3c-.116-.094-.1-.2.051-.327a2.667,2.667,0,0,0,.369-.36l.676-5.847-.72-4.415-4.031-7.269a.48.48,0,0,1-.3.193l-.16.016-1.427-.753a.482.482,0,0,0-.294-.319c-1.573-.692-3.41-.566-5.1-.632l-1.307-.234-1.4.149a41.563,41.563,0,0,0-4.788.1c-.064.009-.129.021-.193.033l-4.951.529-.933.739c-.1.02-.2.039-.3.062a2.969,2.969,0,0,0-1.02.423,1.787,1.787,0,0,0-.4.411c-.144.067-.287.137-.428.212a.558.558,0,0,0-.227.215l-.134-.091-.521.458.1.264a.61.61,0,0,0-.236.425,10.869,10.869,0,0,0-.043,2l-.313,3.454.5,2.834-.7,8.257-.494,1.657-1.153,15.683.239,1.739-.242,2.673-1.877,7.661-.378,4.694.351,3.891-.783,1.127-.072.97a3.468,3.468,0,0,1,.665.692.779.779,0,0,0,.786.277l2.626-.281,3.646.332,1.474-.559,4.8-.272,2.815-.862,1.75-.187a3.111,3.111,0,0,0,1.047-.393,8.261,8.261,0,0,1,.963-.463,10.1,10.1,0,0,0,3.105-1.616,25.486,25.486,0,0,0,3.244-2.793,28.032,28.032,0,0,0,2.793-3.307,10.834,10.834,0,0,0,1.678-3.227,8.254,8.254,0,0,1,.6-1.347,4.119,4.119,0,0,0,.463-1.092l.906-10.444a7.517,7.517,0,0,0-.149-2.07A10.192,10.192,0,0,0,446.185-230.9Zm-12.119,12.564-1.529,3.533a.884.884,0,0,1-.614.306.313.313,0,0,0-.047.365.417.417,0,0,1,.031.358l-1.063.674a5.385,5.385,0,0,1-1.381.71,5.485,5.485,0,0,1-1.02.269,3.362,3.362,0,0,1-1.313-.3q-.913-.343-.819-1.075l.357-4.049-.529-.506.681-1.356.621-7.366,3.76-1.043a4.21,4.21,0,0,1,.75.28,9.581,9.581,0,0,1,1.056.569,3.146,3.146,0,0,1,.921.864,1.7,1.7,0,0,1,.34,1.087l-.19,2.346.273,1.255Zm4.218-28.5-.651.728-.532-.044-.567.763-.816.612-.475.291.608,1.9.261.955.083.5.244.238-.434.328.163.055.206-.031.089.13.058.02.006.073.124.18-.1.048.149.531.2.663-.261-.165.034.25-.248-.185.041-.174-2.5-1.581-.2-.707-.609.3-.276-.362a1.622,1.622,0,0,1-.422-.222c-.206-.154-.616-.505-.616-.505l-1.625,1.1-1.017.8-.34.279-.542.083-.143.519-.433.329-.462.163-.538.463-.608.3-.336.236,2.185-4.869.359-1.342-.565-.593a1.914,1.914,0,0,1-.706-.074l-.252-.575a2.391,2.391,0,0,1-.716-.412l-.452-.389-.384-.182-.446-.189.056-.124a.35.35,0,0,0-.2-.014l-.117-.171-.293-.19a3.155,3.155,0,0,1-.631-.383l1.854-.225.889.019.318.576.889-.452.71-.054.624-.048.962-.157.6-.132.933-2.554.292-1.008.582-1.358.089-.43.444-.881.4,2.217-.266.867.683-.135-.141.943.285.276.515,1.953,2.078-.284.537.425.229-.526,1.258-.094s1.337-.015,1.606-.036l.989-.075Z" transform="translate(0 -6.338)" fill="url(#linear-gradient-24)"/>
  </g>
</svg>
