<svg xmlns="http://www.w3.org/2000/svg" width="22.349" height="22.376" viewBox="0 0 22.349 22.376">
  <g id="Whatsapp" transform="translate(874.067 204.011)">
    <path id="Caminho_66" data-name="Caminho 66" d="M-874.067-181.634c.188-.556.365-1.081.543-1.606.466-1.376.935-2.752,1.395-4.13a.348.348,0,0,0-.043-.25,10.485,10.485,0,0,1-1.257-3.268,10.614,10.614,0,0,1,1.788-8.5,10.709,10.709,0,0,1,6.713-4.383,11,11,0,0,1,11.205,4.363,10.273,10.273,0,0,1,1.985,5.493,10.6,10.6,0,0,1-5.072,10.008,10.539,10.539,0,0,1-7.037,1.634,10.726,10.726,0,0,1-3.922-1.179.533.533,0,0,0-.448-.039q-2.816.9-5.637,1.793Zm2.765-2.7c.094-.025.147-.037.2-.053,1.059-.336,2.118-.671,3.175-1.013a.343.343,0,0,1,.323.042,8.906,8.906,0,0,0,3.564,1.318,9.117,9.117,0,0,0,6.887-1.735,9.015,9.015,0,0,0,2.664-3.1,8.791,8.791,0,0,0,.946-5.541,8.973,8.973,0,0,0-4.006-6.285,8.914,8.914,0,0,0-5.057-1.552,9.04,9.04,0,0,0-5.429,1.712,9.04,9.04,0,0,0-3.525,4.948,8.91,8.91,0,0,0-.2,4.136,8.853,8.853,0,0,0,1.467,3.524.445.445,0,0,1,.062.453c-.29.823-.566,1.652-.847,2.478C-871.15-184.8-871.22-184.586-871.3-184.339Z" fill="#fff"/>
    <path id="Caminho_67" data-name="Caminho 67" d="M-779.7-112.967a.893.893,0,0,0,.113,0c.421-.064.637.153.782.523.24.614.491,1.224.767,1.822a.756.756,0,0,1-.1.837c-.172.23-.36.447-.547.665a.389.389,0,0,0-.062.56,7.172,7.172,0,0,0,3.039,2.858c.2.1.408.2.616.282a.434.434,0,0,0,.625-.151q.374-.451.739-.911c.224-.283.353-.332.676-.183.715.329,1.423.673,2.135,1.008a.391.391,0,0,1,.234.414,2.1,2.1,0,0,1-1.591,2.165,2.385,2.385,0,0,1-1.738.095c-.835-.289-1.682-.556-2.487-.914a7.82,7.82,0,0,1-2.387-1.768,12.163,12.163,0,0,1-2.366-3.24,3.281,3.281,0,0,1-.166-2.632,2.984,2.984,0,0,1,.888-1.236A1.037,1.037,0,0,1-779.7-112.967Z" transform="translate(-86.42 -85.093)" fill="#fff"/>
  </g>
</svg>
